<svg xmlns="http://www.w3.org/2000/svg" viewBox="0 0 982 480.24"><defs><style>.cls-1{fill:#ffb000;}.cls-2{fill:#8c6310;}.cls-19,.cls-2,.cls-20{isolation:isolate;}.cls-3{font-size:34.03px;}.cls-12,.cls-13,.cls-3,.cls-4{fill:#fff;}.cls-12,.cls-3{font-family:EditUndoBRK, Edit Undo BRK;}.cls-4{font-size:21.02px;font-family:Montserrat-Regular, Montserrat;}.cls-5{letter-spacing:-0.01em;}.cls-6{letter-spacing:-0.01em;}.cls-7{letter-spacing:-0.01em;}.cls-8{letter-spacing:-0.01em;}.cls-9{fill:#1a181d;}.cls-10{fill:#ffae03;}.cls-11{opacity:0.6;}.cls-12{font-size:48px;}.cls-13{font-size:24px;font-family:Montserrat-Bold, Montserrat;font-weight:700;}.cls-14{letter-spacing:0em;}.cls-15{letter-spacing:-0.01em;}.cls-16{letter-spacing:-0.01em;}.cls-17{letter-spacing:0em;}.cls-18{letter-spacing:-0.01em;}.cls-19{fill:#ff5603;}.cls-20{fill:#080e2f;}.cls-21{letter-spacing:-0.01em;}</style></defs><g id="Capa_2" data-name="Capa 2"><g id="Capa_3" data-name="Capa 3"><polygon class="cls-1" points="982 224.85 982 426.89 943.09 426.89 943.09 455.13 904.28 455.13 904.28 480.24 81.13 480.24 81.13 455.13 42.32 455.13 42.32 426.89 0 426.89 0 224.85 982 224.85"/><polygon class="cls-2" points="982 224.85 982 46.97 943.09 46.97 943.09 22.11 904.28 22.11 904.28 0 81.13 0 81.13 22.11 42.32 22.11 42.32 46.97 0 46.97 0 224.85 982 224.85"/><text class="cls-3" transform="translate(87.26 71.7)">[ANÁLISIS] MARTIO PARTY SUPERSTARS <tspan x="0" y="40.84">PARA NINTENDO SWITCH</tspan></text><text class="cls-4" transform="translate(90.38 183.89)">Pu<tspan class="cls-5" x="27.96" y="0">n</tspan><tspan x="41.39" y="0">tuación </tspan><tspan class="cls-6" x="127.01" y="0">S</tspan><tspan x="140" y="0">tarpl</tspan><tspan class="cls-7" x="189.35" y="0">a</tspan><tspan class="cls-8" x="201.57" y="0">y</tspan><tspan x="213.44" y="0">:</tspan><tspan class="cls-9" x="219.6" y="0"> </tspan><tspan class="cls-10" x="225.36" y="0">Imprescindible</tspan></text><g class="cls-11"><polygon class="cls-10" points="896.89 74.72 896.89 141.36 892.53 141.36 892.53 146.21 888.45 146.21 888.45 151.32 880.28 151.32 880.28 156.68 875.7 156.68 875.7 161.53 835.87 161.53 835.87 156.68 828.45 156.68 828.45 151.32 820.02 151.32 820.02 146.21 814.66 146.21 814.66 141.36 811.6 141.36 811.6 74.72 814.66 74.72 814.66 69.36 820.02 69.36 820.02 64.51 828.45 64.51 828.45 59.66 835.87 59.66 835.87 55.11 875.7 55.11 875.7 59.66 880.28 59.66 880.28 64.51 888.45 64.51 888.45 69.36 892.53 69.36 892.53 74.72 896.89 74.72"/><polygon class="cls-10" points="896.89 74.72 896.89 141.36 892.53 141.36 892.53 146.21 888.45 146.21 888.45 151.32 880.28 151.32 880.28 156.68 875.7 156.68 875.7 161.53 835.87 161.53 835.87 156.68 828.45 156.68 828.45 151.32 820.02 151.32 820.02 146.21 814.66 146.21 814.66 141.36 811.6 141.36 811.6 74.72 814.66 74.72 814.66 69.36 820.02 69.36 820.02 64.51 828.45 64.51 828.45 59.66 835.87 59.66 835.87 55.11 875.7 55.11 875.7 59.66 880.28 59.66 880.28 64.51 888.45 64.51 888.45 69.36 892.53 69.36 892.53 74.72 896.89 74.72"/></g><polygon class="cls-1" points="904.89 68.72 904.89 135.36 900.53 135.36 900.53 140.21 896.45 140.21 896.45 145.32 888.28 145.32 888.28 150.68 883.7 150.68 883.7 155.53 843.87 155.53 843.87 150.68 836.45 150.68 836.45 145.32 828.02 145.32 828.02 140.21 822.66 140.21 822.66 135.36 819.6 135.36 819.6 68.72 822.66 68.72 822.66 63.36 828.02 63.36 828.02 58.51 836.45 58.51 836.45 53.66 843.87 53.66 843.87 49.11 883.7 49.11 883.7 53.66 888.28 53.66 888.28 58.51 896.45 58.51 896.45 63.36 900.53 63.36 900.53 68.72 904.89 68.72"/><polygon class="cls-1" points="904.89 68.72 904.89 135.36 900.53 135.36 900.53 140.21 896.45 140.21 896.45 145.32 888.28 145.32 888.28 150.68 883.7 150.68 883.7 155.53 843.87 155.53 843.87 150.68 836.45 150.68 836.45 145.32 828.02 145.32 828.02 140.21 822.66 140.21 822.66 135.36 819.6 135.36 819.6 68.72 822.66 68.72 822.66 63.36 828.02 63.36 828.02 58.51 836.45 58.51 836.45 53.66 843.87 53.66 843.87 49.11 883.7 49.11 883.7 53.66 888.28 53.66 888.28 58.51 896.45 58.51 896.45 63.36 900.53 63.36 900.53 68.72 904.89 68.72"/><text class="cls-12" transform="translate(835 115.5)">9.0</text><text class="cls-13" transform="translate(101.04 285.25)">Hi<tspan class="cls-14" x="25.3" y="0">s</tspan><tspan class="cls-15" x="37.68" y="0">t</tspan><tspan x="48.09" y="0">oria:</tspan></text><text class="cls-13" transform="translate(101.04 344.31)">Gráfi<tspan class="cls-16" x="58.78" y="0">c</tspan><tspan class="cls-17" x="72.53" y="0">o</tspan><tspan x="87.98" y="0">s:</tspan></text><text class="cls-13" transform="translate(101.04 403.37)"><tspan class="cls-17">D</tspan><tspan x="18.34" y="0">u</tspan><tspan class="cls-18" x="33.7" y="0">r</tspan><tspan x="43.44" y="0">ación:</tspan></text><path class="cls-19" d="M260.5,266.49l3.1,6.15a1.43,1.43,0,0,0,1.09.78l6.88,1a1.46,1.46,0,0,1,.8,2.49l-4.94,4.72a1.46,1.46,0,0,0-.43,1.3l1.17,6.69a1.45,1.45,0,0,1-2.1,1.54l-6.2-3.2a1.48,1.48,0,0,0-1.33,0l-6.21,3.2a1.45,1.45,0,0,1-2.09-1.54l1.17-6.69a1.46,1.46,0,0,0-.43-1.3L246,276.89a1.45,1.45,0,0,1,.8-2.49l6.87-1a1.45,1.45,0,0,0,1.1-.78l3.09-6.15A1.45,1.45,0,0,1,260.5,266.49Z"/><path class="cls-19" d="M302.38,266.49l3.09,6.15a1.45,1.45,0,0,0,1.1.78l6.87,1a1.45,1.45,0,0,1,.8,2.49l-4.94,4.72a1.46,1.46,0,0,0-.43,1.3L310,289.6a1.45,1.45,0,0,1-2.09,1.54l-6.21-3.2a1.48,1.48,0,0,0-1.33,0l-6.2,3.2a1.45,1.45,0,0,1-2.1-1.54l1.17-6.69a1.46,1.46,0,0,0-.43-1.3l-4.94-4.72a1.46,1.46,0,0,1,.8-2.49l6.88-1a1.43,1.43,0,0,0,1.09-.78l3.1-6.15A1.45,1.45,0,0,1,302.38,266.49Z"/><path class="cls-19" d="M343.74,266.49l3.09,6.15a1.47,1.47,0,0,0,1.1.78l6.87,1a1.45,1.45,0,0,1,.8,2.49l-4.94,4.72a1.43,1.43,0,0,0-.42,1.3l1.17,6.69a1.46,1.46,0,0,1-2.1,1.54l-6.21-3.2a1.48,1.48,0,0,0-1.33,0l-6.2,3.2a1.45,1.45,0,0,1-2.1-1.54l1.17-6.69a1.46,1.46,0,0,0-.43-1.3l-4.93-4.72a1.45,1.45,0,0,1,.8-2.49l6.87-1a1.43,1.43,0,0,0,1.09-.78l3.1-6.15A1.45,1.45,0,0,1,343.74,266.49Z"/><path class="cls-20" d="M385.61,266.49l3.1,6.15a1.43,1.43,0,0,0,1.09.78l6.87,1a1.45,1.45,0,0,1,.8,2.49l-4.93,4.72a1.43,1.43,0,0,0-.43,1.3l1.17,6.69a1.45,1.45,0,0,1-2.1,1.54l-6.2-3.2a1.5,1.5,0,0,0-1.34,0l-6.2,3.2a1.45,1.45,0,0,1-2.1-1.54l1.17-6.69a1.41,1.41,0,0,0-.43-1.3l-4.93-4.72a1.45,1.45,0,0,1,.8-2.49l6.87-1a1.47,1.47,0,0,0,1.1-.78l3.09-6.15A1.45,1.45,0,0,1,385.61,266.49Z"/><path class="cls-20" d="M424.42,266.49l3.09,6.15a1.47,1.47,0,0,0,1.1.78l6.87,1a1.45,1.45,0,0,1,.8,2.49l-4.94,4.72a1.43,1.43,0,0,0-.42,1.3l1.17,6.69a1.46,1.46,0,0,1-2.1,1.54l-6.21-3.2a1.48,1.48,0,0,0-1.33,0l-6.2,3.2a1.45,1.45,0,0,1-2.1-1.54l1.17-6.69a1.46,1.46,0,0,0-.43-1.3L410,276.89a1.45,1.45,0,0,1,.8-2.49l6.87-1a1.43,1.43,0,0,0,1.09-.78l3.1-6.15A1.45,1.45,0,0,1,424.42,266.49Z"/><path class="cls-19" d="M260.5,323.51l3.1,6.15a1.44,1.44,0,0,0,1.09.79l6.88,1a1.46,1.46,0,0,1,.8,2.49l-4.94,4.71a1.48,1.48,0,0,0-.43,1.3l1.17,6.69a1.45,1.45,0,0,1-2.1,1.54l-6.2-3.19a1.42,1.42,0,0,0-1.33,0l-6.21,3.19a1.44,1.44,0,0,1-2.09-1.54l1.17-6.69a1.48,1.48,0,0,0-.43-1.3L246,333.92a1.45,1.45,0,0,1,.8-2.49l6.87-1a1.46,1.46,0,0,0,1.1-.79l3.09-6.15A1.46,1.46,0,0,1,260.5,323.51Z"/><path class="cls-19" d="M302.38,323.51l3.09,6.15a1.46,1.46,0,0,0,1.1.79l6.87,1a1.45,1.45,0,0,1,.8,2.49l-4.94,4.71a1.48,1.48,0,0,0-.43,1.3l1.17,6.69a1.44,1.44,0,0,1-2.09,1.54L301.74,345a1.42,1.42,0,0,0-1.33,0l-6.2,3.19a1.45,1.45,0,0,1-2.1-1.54l1.17-6.69a1.48,1.48,0,0,0-.43-1.3l-4.94-4.71a1.46,1.46,0,0,1,.8-2.49l6.88-1a1.44,1.44,0,0,0,1.09-.79l3.1-6.15A1.46,1.46,0,0,1,302.38,323.51Z"/><path class="cls-19" d="M343.74,323.51l3.09,6.15a1.48,1.48,0,0,0,1.1.79l6.87,1a1.45,1.45,0,0,1,.8,2.49l-4.94,4.71a1.44,1.44,0,0,0-.42,1.3l1.17,6.69a1.45,1.45,0,0,1-2.1,1.54L343.1,345a1.42,1.42,0,0,0-1.33,0l-6.2,3.19a1.45,1.45,0,0,1-2.1-1.54l1.17-6.69a1.48,1.48,0,0,0-.43-1.3l-4.93-4.71a1.45,1.45,0,0,1,.8-2.49l6.87-1a1.44,1.44,0,0,0,1.09-.79l3.1-6.15A1.46,1.46,0,0,1,343.74,323.51Z"/><path class="cls-19" d="M385.61,323.51l3.1,6.15a1.44,1.44,0,0,0,1.09.79l6.87,1a1.45,1.45,0,0,1,.8,2.49l-4.93,4.71a1.45,1.45,0,0,0-.43,1.3l1.17,6.69a1.45,1.45,0,0,1-2.1,1.54L385,345a1.44,1.44,0,0,0-1.34,0l-6.2,3.19a1.45,1.45,0,0,1-2.1-1.54l1.17-6.69a1.42,1.42,0,0,0-.43-1.3l-4.93-4.71a1.45,1.45,0,0,1,.8-2.49l6.87-1a1.48,1.48,0,0,0,1.1-.79l3.09-6.15A1.46,1.46,0,0,1,385.61,323.51Z"/><path class="cls-19" d="M424.42,323.51l3.09,6.15a1.48,1.48,0,0,0,1.1.79l6.87,1a1.45,1.45,0,0,1,.8,2.49l-4.94,4.71a1.44,1.44,0,0,0-.42,1.3l1.17,6.69a1.45,1.45,0,0,1-2.1,1.54L423.78,345a1.42,1.42,0,0,0-1.33,0l-6.2,3.19a1.45,1.45,0,0,1-2.1-1.54l1.17-6.69a1.48,1.48,0,0,0-.43-1.3L410,333.92a1.45,1.45,0,0,1,.8-2.49l6.87-1a1.44,1.44,0,0,0,1.09-.79l3.1-6.15A1.46,1.46,0,0,1,424.42,323.51Z"/><path class="cls-19" d="M260.5,386.36l3.1,6.15a1.46,1.46,0,0,0,1.09.78l6.88,1a1.46,1.46,0,0,1,.8,2.49l-4.94,4.72a1.46,1.46,0,0,0-.43,1.3l1.17,6.69a1.45,1.45,0,0,1-2.1,1.54l-6.2-3.2a1.48,1.48,0,0,0-1.33,0l-6.21,3.2a1.45,1.45,0,0,1-2.09-1.54l1.17-6.69a1.46,1.46,0,0,0-.43-1.3L246,396.76a1.45,1.45,0,0,1,.8-2.49l6.87-1a1.47,1.47,0,0,0,1.1-.78l3.09-6.15A1.45,1.45,0,0,1,260.5,386.36Z"/><path class="cls-19" d="M302.38,386.36l3.09,6.15a1.47,1.47,0,0,0,1.1.78l6.87,1a1.45,1.45,0,0,1,.8,2.49l-4.94,4.72a1.46,1.46,0,0,0-.43,1.3l1.17,6.69A1.45,1.45,0,0,1,308,411l-6.21-3.2a1.48,1.48,0,0,0-1.33,0l-6.2,3.2a1.45,1.45,0,0,1-2.1-1.54l1.17-6.69a1.46,1.46,0,0,0-.43-1.3l-4.94-4.72a1.46,1.46,0,0,1,.8-2.49l6.88-1a1.46,1.46,0,0,0,1.09-.78l3.1-6.15A1.45,1.45,0,0,1,302.38,386.36Z"/><path class="cls-19" d="M343.74,386.36l3.09,6.15a1.49,1.49,0,0,0,1.1.78l6.87,1a1.45,1.45,0,0,1,.8,2.49l-4.94,4.72a1.43,1.43,0,0,0-.42,1.3l1.17,6.69a1.46,1.46,0,0,1-2.1,1.54l-6.21-3.2a1.48,1.48,0,0,0-1.33,0l-6.2,3.2a1.45,1.45,0,0,1-2.1-1.54l1.17-6.69a1.46,1.46,0,0,0-.43-1.3l-4.93-4.72a1.45,1.45,0,0,1,.8-2.49l6.87-1a1.46,1.46,0,0,0,1.09-.78l3.1-6.15A1.45,1.45,0,0,1,343.74,386.36Z"/><path class="cls-20" d="M385.61,386.36l3.1,6.15a1.46,1.46,0,0,0,1.09.78l6.87,1a1.45,1.45,0,0,1,.8,2.49l-4.93,4.72a1.43,1.43,0,0,0-.43,1.3l1.17,6.69a1.45,1.45,0,0,1-2.1,1.54l-6.2-3.2a1.5,1.5,0,0,0-1.34,0l-6.2,3.2a1.45,1.45,0,0,1-2.1-1.54l1.17-6.69a1.41,1.41,0,0,0-.43-1.3l-4.93-4.72a1.45,1.45,0,0,1,.8-2.49l6.87-1a1.49,1.49,0,0,0,1.1-.78l3.09-6.15A1.45,1.45,0,0,1,385.61,386.36Z"/><path class="cls-20" d="M424.42,386.36l3.09,6.15a1.49,1.49,0,0,0,1.1.78l6.87,1a1.45,1.45,0,0,1,.8,2.49l-4.94,4.72a1.43,1.43,0,0,0-.42,1.3l1.17,6.69A1.46,1.46,0,0,1,430,411l-6.21-3.2a1.48,1.48,0,0,0-1.33,0l-6.2,3.2a1.45,1.45,0,0,1-2.1-1.54l1.17-6.69a1.46,1.46,0,0,0-.43-1.3L410,396.76a1.45,1.45,0,0,1,.8-2.49l6.87-1a1.46,1.46,0,0,0,1.09-.78l3.1-6.15A1.45,1.45,0,0,1,424.42,386.36Z"/><text class="cls-13" transform="translate(511.21 285.25)"><tspan class="cls-21">J</tspan><tspan x="13.15" y="0">ugabilidad:</tspan></text><text class="cls-13" transform="translate(511.21 344.31)"><tspan class="cls-17">S</tspan><tspan x="15.19" y="0">onido:</tspan></text><text class="cls-13" transform="translate(511.21 403.37)">Multijugador:</text><path class="cls-19" d="M720.67,266.49l3.09,6.15a1.45,1.45,0,0,0,1.1.78l6.87,1a1.45,1.45,0,0,1,.8,2.49l-4.94,4.72a1.46,1.46,0,0,0-.43,1.3l1.17,6.69a1.45,1.45,0,0,1-2.09,1.54l-6.21-3.2a1.48,1.48,0,0,0-1.33,0l-6.2,3.2a1.45,1.45,0,0,1-2.1-1.54l1.17-6.69a1.46,1.46,0,0,0-.43-1.3l-4.93-4.72a1.45,1.45,0,0,1,.79-2.49l6.88-1a1.43,1.43,0,0,0,1.09-.78l3.1-6.15A1.45,1.45,0,0,1,720.67,266.49Z"/><path class="cls-19" d="M762.54,266.49l3.09,6.15a1.47,1.47,0,0,0,1.1.78l6.87,1a1.45,1.45,0,0,1,.8,2.49l-4.93,4.72a1.41,1.41,0,0,0-.43,1.3l1.17,6.69a1.46,1.46,0,0,1-2.1,1.54l-6.2-3.2a1.5,1.5,0,0,0-1.34,0l-6.2,3.2a1.45,1.45,0,0,1-2.1-1.54l1.17-6.69a1.46,1.46,0,0,0-.43-1.3l-4.93-4.72a1.45,1.45,0,0,1,.8-2.49l6.87-1a1.43,1.43,0,0,0,1.09-.78l3.1-6.15A1.45,1.45,0,0,1,762.54,266.49Z"/><path class="cls-19" d="M803.9,266.49l3.1,6.15a1.43,1.43,0,0,0,1.09.78l6.87,1a1.45,1.45,0,0,1,.8,2.49l-4.93,4.72a1.43,1.43,0,0,0-.43,1.3l1.17,6.69a1.45,1.45,0,0,1-2.1,1.54l-6.2-3.2a1.5,1.5,0,0,0-1.34,0l-6.2,3.2a1.45,1.45,0,0,1-2.1-1.54l1.17-6.69a1.41,1.41,0,0,0-.43-1.3l-4.93-4.72a1.45,1.45,0,0,1,.8-2.49l6.87-1a1.47,1.47,0,0,0,1.1-.78l3.09-6.15A1.45,1.45,0,0,1,803.9,266.49Z"/><path class="cls-19" d="M845.77,266.49l3.1,6.15a1.43,1.43,0,0,0,1.09.78l6.87,1a1.45,1.45,0,0,1,.8,2.49l-4.93,4.72a1.46,1.46,0,0,0-.43,1.3l1.17,6.69a1.45,1.45,0,0,1-2.1,1.54l-6.2-3.2a1.48,1.48,0,0,0-1.33,0l-6.21,3.2a1.46,1.46,0,0,1-2.1-1.54l1.17-6.69a1.43,1.43,0,0,0-.42-1.3l-4.94-4.72a1.45,1.45,0,0,1,.8-2.49l6.87-1a1.45,1.45,0,0,0,1.1-.78l3.09-6.15A1.45,1.45,0,0,1,845.77,266.49Z"/><path class="cls-19" d="M884.58,266.49l3.1,6.15a1.43,1.43,0,0,0,1.09.78l6.87,1a1.45,1.45,0,0,1,.8,2.49l-4.93,4.72a1.46,1.46,0,0,0-.43,1.3l1.17,6.69a1.45,1.45,0,0,1-2.1,1.54l-6.2-3.2a1.48,1.48,0,0,0-1.33,0l-6.21,3.2a1.46,1.46,0,0,1-2.1-1.54l1.17-6.69a1.43,1.43,0,0,0-.42-1.3l-4.94-4.72a1.45,1.45,0,0,1,.8-2.49l6.87-1a1.47,1.47,0,0,0,1.1-.78l3.09-6.15A1.45,1.45,0,0,1,884.58,266.49Z"/><path class="cls-19" d="M720.67,327.51l3.09,6.15a1.46,1.46,0,0,0,1.1.79l6.87,1a1.45,1.45,0,0,1,.8,2.49l-4.94,4.71a1.48,1.48,0,0,0-.43,1.3l1.17,6.69a1.44,1.44,0,0,1-2.09,1.54L720,349a1.42,1.42,0,0,0-1.33,0l-6.2,3.19a1.45,1.45,0,0,1-2.1-1.54l1.17-6.69a1.48,1.48,0,0,0-.43-1.3l-4.93-4.71a1.45,1.45,0,0,1,.79-2.49l6.88-1a1.44,1.44,0,0,0,1.09-.79l3.1-6.15A1.46,1.46,0,0,1,720.67,327.51Z"/><path class="cls-19" d="M762.54,327.51l3.09,6.15a1.48,1.48,0,0,0,1.1.79l6.87,1a1.45,1.45,0,0,1,.8,2.49l-4.93,4.71a1.42,1.42,0,0,0-.43,1.3l1.17,6.69a1.45,1.45,0,0,1-2.1,1.54l-6.2-3.19a1.44,1.44,0,0,0-1.34,0l-6.2,3.19a1.45,1.45,0,0,1-2.1-1.54l1.17-6.69a1.48,1.48,0,0,0-.43-1.3l-4.93-4.71a1.45,1.45,0,0,1,.8-2.49l6.87-1a1.44,1.44,0,0,0,1.09-.79l3.1-6.15A1.46,1.46,0,0,1,762.54,327.51Z"/><path class="cls-19" d="M803.9,327.51l3.1,6.15a1.44,1.44,0,0,0,1.09.79l6.87,1a1.45,1.45,0,0,1,.8,2.49l-4.93,4.71a1.45,1.45,0,0,0-.43,1.3l1.17,6.69a1.45,1.45,0,0,1-2.1,1.54l-6.2-3.19a1.44,1.44,0,0,0-1.34,0l-6.2,3.19a1.45,1.45,0,0,1-2.1-1.54l1.17-6.69a1.42,1.42,0,0,0-.43-1.3l-4.93-4.71a1.45,1.45,0,0,1,.8-2.49l6.87-1a1.48,1.48,0,0,0,1.1-.79l3.09-6.15A1.46,1.46,0,0,1,803.9,327.51Z"/><path class="cls-19" d="M845.77,327.51l3.1,6.15a1.44,1.44,0,0,0,1.09.79l6.87,1a1.45,1.45,0,0,1,.8,2.49l-4.93,4.71a1.48,1.48,0,0,0-.43,1.3l1.17,6.69a1.45,1.45,0,0,1-2.1,1.54l-6.2-3.19a1.42,1.42,0,0,0-1.33,0l-6.21,3.19a1.45,1.45,0,0,1-2.1-1.54l1.17-6.69a1.44,1.44,0,0,0-.42-1.3l-4.94-4.71a1.45,1.45,0,0,1,.8-2.49l6.87-1a1.46,1.46,0,0,0,1.1-.79l3.09-6.15A1.46,1.46,0,0,1,845.77,327.51Z"/><path class="cls-19" d="M884.58,327.51l3.1,6.15a1.44,1.44,0,0,0,1.09.79l6.87,1a1.45,1.45,0,0,1,.8,2.49l-4.93,4.71a1.48,1.48,0,0,0-.43,1.3l1.17,6.69a1.45,1.45,0,0,1-2.1,1.54L884,349a1.42,1.42,0,0,0-1.33,0l-6.21,3.19a1.45,1.45,0,0,1-2.1-1.54l1.17-6.69a1.44,1.44,0,0,0-.42-1.3l-4.94-4.71a1.45,1.45,0,0,1,.8-2.49l6.87-1a1.48,1.48,0,0,0,1.1-.79l3.09-6.15A1.46,1.46,0,0,1,884.58,327.51Z"/><path class="cls-19" d="M720.67,386.57l3.09,6.15a1.46,1.46,0,0,0,1.1.79l6.87,1a1.46,1.46,0,0,1,.8,2.5l-4.94,4.71a1.47,1.47,0,0,0-.43,1.3l1.17,6.69a1.45,1.45,0,0,1-2.09,1.54L720,408a1.42,1.42,0,0,0-1.33,0l-6.2,3.19a1.45,1.45,0,0,1-2.1-1.54l1.17-6.69a1.47,1.47,0,0,0-.43-1.3L706.21,397a1.46,1.46,0,0,1,.79-2.5l6.88-1a1.44,1.44,0,0,0,1.09-.79l3.1-6.15A1.46,1.46,0,0,1,720.67,386.57Z"/><path class="cls-19" d="M762.54,386.57l3.09,6.15a1.48,1.48,0,0,0,1.1.79l6.87,1a1.46,1.46,0,0,1,.8,2.5l-4.93,4.71A1.41,1.41,0,0,0,769,403l1.17,6.69a1.46,1.46,0,0,1-2.1,1.54l-6.2-3.19a1.44,1.44,0,0,0-1.34,0l-6.2,3.19a1.45,1.45,0,0,1-2.1-1.54l1.17-6.69a1.47,1.47,0,0,0-.43-1.3L748.08,397a1.46,1.46,0,0,1,.8-2.5l6.87-1a1.44,1.44,0,0,0,1.09-.79l3.1-6.15A1.46,1.46,0,0,1,762.54,386.57Z"/><path class="cls-19" d="M803.9,386.57l3.1,6.15a1.44,1.44,0,0,0,1.09.79l6.87,1a1.46,1.46,0,0,1,.8,2.5l-4.93,4.71a1.44,1.44,0,0,0-.43,1.3l1.17,6.69a1.45,1.45,0,0,1-2.1,1.54l-6.2-3.19a1.44,1.44,0,0,0-1.34,0l-6.2,3.19a1.45,1.45,0,0,1-2.1-1.54L794.8,403a1.41,1.41,0,0,0-.43-1.3L789.44,397a1.46,1.46,0,0,1,.8-2.5l6.87-1a1.48,1.48,0,0,0,1.1-.79l3.09-6.15A1.46,1.46,0,0,1,803.9,386.57Z"/><path class="cls-19" d="M845.77,386.57l3.1,6.15a1.44,1.44,0,0,0,1.09.79l6.87,1a1.46,1.46,0,0,1,.8,2.5l-4.93,4.71a1.47,1.47,0,0,0-.43,1.3l1.17,6.69a1.45,1.45,0,0,1-2.1,1.54l-6.2-3.19a1.42,1.42,0,0,0-1.33,0l-6.21,3.19a1.46,1.46,0,0,1-2.1-1.54l1.17-6.69a1.43,1.43,0,0,0-.42-1.3L831.31,397a1.46,1.46,0,0,1,.8-2.5l6.87-1a1.46,1.46,0,0,0,1.1-.79l3.09-6.15A1.46,1.46,0,0,1,845.77,386.57Z"/><path class="cls-19" d="M884.58,386.57l3.1,6.15a1.44,1.44,0,0,0,1.09.79l6.87,1a1.46,1.46,0,0,1,.8,2.5l-4.93,4.71a1.47,1.47,0,0,0-.43,1.3l1.17,6.69a1.45,1.45,0,0,1-2.1,1.54L884,408a1.42,1.42,0,0,0-1.33,0l-6.21,3.19a1.46,1.46,0,0,1-2.1-1.54l1.17-6.69a1.43,1.43,0,0,0-.42-1.3L870.12,397a1.46,1.46,0,0,1,.8-2.5l6.87-1a1.48,1.48,0,0,0,1.1-.79l3.09-6.15A1.46,1.46,0,0,1,884.58,386.57Z"/></g></g></svg>