<svg xmlns="http://www.w3.org/2000/svg" viewBox="0 0 982 293"><defs><style>.cls-1{fill:#00062c;}.cls-2{font-size:21.02px;fill:#ffae03;}.cls-2,.cls-4,.cls-9{font-family:Montserrat-Bold, Montserrat;font-weight:700;}.cls-3{letter-spacing:0em;}.cls-4{font-size:17.02px;}.cls-4,.cls-9{fill:#fff;}.cls-5{letter-spacing:-0.01em;}.cls-6{letter-spacing:-0.01em;}.cls-7{letter-spacing:0em;}.cls-8{letter-spacing:-0.01em;}.cls-9{font-size:18.02px;}.cls-10{letter-spacing:0em;}.cls-11{letter-spacing:-0.01em;}.cls-12{letter-spacing:-0.01em;}.cls-13{letter-spacing:-0.01em;}.cls-14{letter-spacing:-0.01em;}.cls-15{letter-spacing:-0.01em;}.cls-16{letter-spacing:0em;}.cls-17{letter-spacing:-0.01em;}.cls-18{letter-spacing:-0.01em;}.cls-19{letter-spacing:-0.01em;}.cls-20,.cls-21{fill:none;stroke-linecap:round;stroke-miterlimit:10;}.cls-20{stroke:#ff4233;stroke-width:2px;}.cls-21{stroke:#ffae03;stroke-width:3px;}</style></defs><g id="Capa_2" data-name="Capa 2"><g id="Capa_3" data-name="Capa 3"><g id="Capa_4" data-name="Capa 4"><polygon class="cls-1" points="982 53.82 982 238.41 940.87 238.41 940.87 264.45 901.24 264.45 901.24 293 80.7 293 80.7 264.45 41.64 264.45 41.64 238.41 0 238.41 0 53.82 41.64 53.82 41.64 27.01 80.7 27.01 80.7 0 901.24 0 901.24 27.01 940.87 27.01 940.87 53.82 982 53.82"/><text class="cls-2" transform="translate(84.53 61.58)">De<tspan class="cls-3" x="29.16" y="0">s</tspan><tspan x="40" y="0">taca en:</tspan></text><text class="cls-2" transform="translate(542.06 57.58)">Flojea en:</text><text class="cls-4" transform="translate(112.13 102.38)"><tspan class="cls-5">J</tspan><tspan x="9.33" y="0">ugar en linea </tspan><tspan class="cls-6" x="124.97" y="0">c</tspan><tspan x="134.72" y="0">on amig</tspan><tspan class="cls-7" x="204.28" y="0">o</tspan><tspan x="215.24" y="0">s es una g</tspan><tspan class="cls-8" x="300.15" y="0">o</tspan><tspan x="311.08" y="0">zada</tspan></text><text class="cls-9" transform="translate(112.13 144.25)">El juego se ve herm<tspan class="cls-10" x="178.59" y="0">o</tspan><tspan x="190.19" y="0">s</tspan><tspan class="cls-10" x="199.56" y="0">o</tspan><tspan x="211.17" y="0">s y cue</tspan><tspan class="cls-11" x="273.83" y="0">n</tspan><tspan x="285.2" y="0">ta </tspan><tspan class="cls-12" x="308.59" y="0">c</tspan><tspan x="318.91" y="0">on </tspan><tspan x="0" y="21.62">nu</tspan><tspan class="cls-11" x="23.04" y="21.62">e</tspan><tspan class="cls-13" x="34.04" y="21.62">v</tspan><tspan x="44.47" y="21.62">as animaciones.</tspan></text><text class="cls-9" transform="translate(112.13 210.53)">Re<tspan class="cls-12" x="24.23" y="0">c</tspan><tspan x="34.56" y="0">opila y ada</tspan><tspan class="cls-14" x="133.02" y="0">p</tspan><tspan x="144.86" y="0">ta l</tspan><tspan class="cls-10" x="173.51" y="0">o</tspan><tspan x="185.11" y="0">s mejores </tspan><tspan x="0" y="21.62">minijueg</tspan><tspan class="cls-10" x="80.61" y="21.62">o</tspan><tspan x="92.21" y="21.62">s de la serie.</tspan></text><text class="cls-4" transform="translate(568.89 102.38)">Echam<tspan class="cls-7" x="58.74" y="0">o</tspan><tspan x="69.7" y="0">s en </tspan><tspan class="cls-15" x="108.92" y="0">f</tspan><tspan x="115.66" y="0">alta l</tspan><tspan class="cls-7" x="157.79" y="0">o</tspan><tspan x="168.75" y="0">s NPC de l</tspan><tspan class="cls-7" x="255.77" y="0">o</tspan><tspan x="266.73" y="0">s clási</tspan><tspan class="cls-6" x="318.87" y="0">c</tspan><tspan class="cls-7" x="328.62" y="0">o</tspan><tspan x="339.58" y="0">s.</tspan></text><text class="cls-9" transform="translate(568.89 156.25)">Más table<tspan class="cls-11" x="89.04" y="0">r</tspan><tspan class="cls-10" x="96.3" y="0">o</tspan><tspan x="107.91" y="0">s hubie</tspan><tspan class="cls-10" x="173.47" y="0">r</tspan><tspan x="180.79" y="0">an e</tspan><tspan class="cls-16" x="218.9" y="0">s</tspan><tspan x="228.19" y="0">tado bien.</tspan></text><text class="cls-9" transform="translate(568.89 210.53)"><tspan class="cls-13">P</tspan><tspan x="12.07" y="0">o</tspan><tspan class="cls-12" x="23.77" y="0">c</tspan><tspan x="34.09" y="0">o uso del </tspan><tspan class="cls-12" x="121.04" y="0">c</tspan><tspan x="131.37" y="0">o</tspan><tspan class="cls-11" x="143.06" y="0">n</tspan><tspan x="154.43" y="0">t</tspan><tspan class="cls-11" x="162.36" y="0">r</tspan><tspan x="169.62" y="0">ol por m</tspan><tspan class="cls-17" x="244.89" y="0">o</tspan><tspan x="256.37" y="0">vimie</tspan><tspan class="cls-11" x="306.3" y="0">n</tspan><tspan class="cls-18" x="317.67" y="0">t</tspan><tspan x="325.49" y="0">o de </tspan><tspan x="0" y="21.62">l</tspan><tspan class="cls-10" x="5.26" y="21.62">o</tspan><tspan x="16.86" y="21.62">s </tspan><tspan class="cls-12" x="30.99" y="21.62">J</tspan><tspan class="cls-19" x="40.85" y="21.62">o</tspan><tspan x="52.31" y="21.62">y-</tspan><tspan class="cls-14" x="71.76" y="21.62">c</tspan><tspan x="82.09" y="21.62">on</tspan></text><line class="cls-20" x1="547.86" y1="91.52" x2="559.25" y2="102.9"/><line class="cls-20" x1="559.25" y1="91.52" x2="547.86" y2="102.9"/><line class="cls-20" x1="547.86" y1="143.87" x2="559.25" y2="155.25"/><line class="cls-20" x1="559.25" y1="143.87" x2="547.86" y2="155.25"/><line class="cls-20" x1="547.86" y1="208.67" x2="559.25" y2="220.05"/><line class="cls-20" x1="559.25" y1="208.67" x2="547.86" y2="220.05"/><polyline class="cls-21" points="80.53 97.08 85.66 102.98 97.39 89.5"/><polyline class="cls-21" points="80.53 147.34 85.66 153.24 97.39 139.76"/><polyline class="cls-21" points="80.53 214.15 85.66 220.05 97.39 206.57"/></g></g></g></svg>