<?xml version="1.0" encoding="utf-8"?>
<!-- Generator: Adobe Illustrator 25.2.3, SVG Export Plug-In . SVG Version: 6.00 Build 0)  -->
<svg version="1.1" id="Capa_1" xmlns="http://www.w3.org/2000/svg" xmlns:xlink="http://www.w3.org/1999/xlink" x="0px" y="0px"
	 viewBox="0 0 709.4 859.1" style="enable-background:new 0 0 709.4 859.1;" xml:space="preserve">
<style type="text/css">
	.st0{opacity:0.6;}
	.st1{fill:#FFAE03;}
	.st2{fill:#FFB000;}
</style>
<g>
	<g class="st0">
		<polygon class="st1" points="648.5,198.9 648.5,705.6 615.4,705.6 615.4,742.4 584.4,742.4 584.4,781.4 522.3,781.4 522.3,822.2 
			487.4,822.2 487.4,859.1 184.4,859.1 184.4,822.2 128.2,822.2 128.2,781.4 64,781.4 64,742.4 23.2,742.4 23.2,705.6 0,705.6 
			0,198.9 23.2,198.9 23.2,158.1 64,158.1 64,121.2 128.2,121.2 128.2,84.3 184.4,84.3 184.4,49.6 487.4,49.6 487.4,84.3 
			522.3,84.3 522.3,121.2 584.4,121.2 584.4,158.1 615.4,158.1 615.4,198.9 		"/>
		<polygon class="st1" points="648.5,198.9 648.5,705.6 615.4,705.6 615.4,742.4 584.4,742.4 584.4,781.4 522.3,781.4 522.3,822.2 
			487.4,822.2 487.4,859.1 184.4,859.1 184.4,822.2 128.2,822.2 128.2,781.4 64,781.4 64,742.4 23.2,742.4 23.2,705.6 0,705.6 
			0,198.9 23.2,198.9 23.2,158.1 64,158.1 64,121.2 128.2,121.2 128.2,84.3 184.4,84.3 184.4,49.6 487.4,49.6 487.4,84.3 
			522.3,84.3 522.3,121.2 584.4,121.2 584.4,158.1 615.4,158.1 615.4,198.9 		"/>
	</g>
	<g>
		<polygon class="st2" points="709.4,153.3 709.4,660.1 676.3,660.1 676.3,696.8 645.3,696.8 645.3,735.8 583.2,735.8 583.2,776.6 
			548.3,776.6 548.3,813.5 245.3,813.5 245.3,776.6 188.9,776.6 188.9,735.8 124.7,735.8 124.7,696.8 84.1,696.8 84.1,660.1 
			60.7,660.1 60.7,153.3 84.1,153.3 84.1,112.4 124.7,112.4 124.7,75.5 188.9,75.5 188.9,38.7 245.3,38.7 245.3,4 548.3,4 
			548.3,38.7 583.2,38.7 583.2,75.5 645.3,75.5 645.3,112.4 676.3,112.4 676.3,153.3 		"/>
		<polygon class="st2" points="709.4,153.3 709.4,660.1 676.3,660.1 676.3,696.8 645.3,696.8 645.3,735.8 583.2,735.8 583.2,776.6 
			548.3,776.6 548.3,813.5 245.3,813.5 245.3,776.6 188.9,776.6 188.9,735.8 124.7,735.8 124.7,696.8 84.1,696.8 84.1,660.1 
			60.7,660.1 60.7,153.3 84.1,153.3 84.1,112.4 124.7,112.4 124.7,75.5 188.9,75.5 188.9,38.7 245.3,38.7 245.3,4 548.3,4 
			548.3,38.7 583.2,38.7 583.2,75.5 645.3,75.5 645.3,112.4 676.3,112.4 676.3,153.3 		"/>
	</g>
</g>
</svg>
